<mxfile host="app.diagrams.net" modified="2021-01-25T08:52:17.990Z" agent="5.0 (X11)" etag="8umdd5-DZBA5Aw_AOBso" version="14.2.7" type="github">
  <diagram id="C5RBs43oDa-KdzZeNtuy" name="Page-1">
    <mxGraphModel dx="1422" dy="738" grid="1" gridSize="10" guides="1" tooltips="1" connect="1" arrows="1" fold="1" page="1" pageScale="1" pageWidth="827" pageHeight="1169" math="0" shadow="0">
      <root>
        <mxCell id="WIyWlLk6GJQsqaUBKTNV-0" />
        <mxCell id="WIyWlLk6GJQsqaUBKTNV-1" parent="WIyWlLk6GJQsqaUBKTNV-0" />
        <mxCell id="9hiHG_MVNT2x95Jfkq5F-1" value="" style="edgeStyle=orthogonalEdgeStyle;rounded=0;orthogonalLoop=1;jettySize=auto;html=1;" edge="1" parent="WIyWlLk6GJQsqaUBKTNV-1" source="WIyWlLk6GJQsqaUBKTNV-3" target="9hiHG_MVNT2x95Jfkq5F-0">
          <mxGeometry relative="1" as="geometry" />
        </mxCell>
        <mxCell id="9hiHG_MVNT2x95Jfkq5F-4" value="" style="edgeStyle=orthogonalEdgeStyle;rounded=0;orthogonalLoop=1;jettySize=auto;html=1;entryX=0.5;entryY=0;entryDx=0;entryDy=0;" edge="1" parent="WIyWlLk6GJQsqaUBKTNV-1" source="WIyWlLk6GJQsqaUBKTNV-3" target="9hiHG_MVNT2x95Jfkq5F-5">
          <mxGeometry relative="1" as="geometry">
            <mxPoint x="380" y="300" as="targetPoint" />
            <Array as="points">
              <mxPoint x="230" y="160" />
              <mxPoint x="476" y="160" />
              <mxPoint x="476" y="295" />
            </Array>
          </mxGeometry>
        </mxCell>
        <mxCell id="WIyWlLk6GJQsqaUBKTNV-3" value="Ressources" style="rounded=1;whiteSpace=wrap;html=1;fontSize=12;glass=0;strokeWidth=1;shadow=0;" parent="WIyWlLk6GJQsqaUBKTNV-1" vertex="1">
          <mxGeometry x="160" y="80" width="120" height="40" as="geometry" />
        </mxCell>
        <mxCell id="9hiHG_MVNT2x95Jfkq5F-2" value="" style="edgeStyle=orthogonalEdgeStyle;rounded=0;orthogonalLoop=1;jettySize=auto;html=1;entryX=0.5;entryY=0;entryDx=0;entryDy=0;" edge="1" parent="WIyWlLk6GJQsqaUBKTNV-1" source="9hiHG_MVNT2x95Jfkq5F-0" target="9hiHG_MVNT2x95Jfkq5F-5">
          <mxGeometry relative="1" as="geometry">
            <mxPoint x="340" y="230" as="targetPoint" />
            <Array as="points">
              <mxPoint x="474" y="160" />
              <mxPoint x="476" y="160" />
            </Array>
          </mxGeometry>
        </mxCell>
        <mxCell id="9hiHG_MVNT2x95Jfkq5F-0" value="Scopes" style="rounded=1;whiteSpace=wrap;html=1;fontSize=12;glass=0;strokeWidth=1;shadow=0;" vertex="1" parent="WIyWlLk6GJQsqaUBKTNV-1">
          <mxGeometry x="400" y="80" width="120" height="40" as="geometry" />
        </mxCell>
        <mxCell id="9hiHG_MVNT2x95Jfkq5F-5" value="Permissions" style="rounded=1;whiteSpace=wrap;html=1;fontSize=12;glass=0;strokeWidth=1;shadow=0;" vertex="1" parent="WIyWlLk6GJQsqaUBKTNV-1">
          <mxGeometry x="430" y="255" width="120" height="40" as="geometry" />
        </mxCell>
        <mxCell id="9hiHG_MVNT2x95Jfkq5F-11" value="" style="edgeStyle=orthogonalEdgeStyle;rounded=0;orthogonalLoop=1;jettySize=auto;html=1;" edge="1" parent="WIyWlLk6GJQsqaUBKTNV-1" source="9hiHG_MVNT2x95Jfkq5F-6" target="9hiHG_MVNT2x95Jfkq5F-5">
          <mxGeometry relative="1" as="geometry" />
        </mxCell>
        <mxCell id="9hiHG_MVNT2x95Jfkq5F-6" value="Policies" style="rounded=1;whiteSpace=wrap;html=1;fontSize=12;glass=0;strokeWidth=1;shadow=0;" vertex="1" parent="WIyWlLk6GJQsqaUBKTNV-1">
          <mxGeometry x="230" y="255" width="120" height="40" as="geometry" />
        </mxCell>
        <mxCell id="9hiHG_MVNT2x95Jfkq5F-10" value="" style="edgeStyle=orthogonalEdgeStyle;rounded=0;orthogonalLoop=1;jettySize=auto;html=1;" edge="1" parent="WIyWlLk6GJQsqaUBKTNV-1" source="9hiHG_MVNT2x95Jfkq5F-9" target="9hiHG_MVNT2x95Jfkq5F-6">
          <mxGeometry relative="1" as="geometry" />
        </mxCell>
        <mxCell id="9hiHG_MVNT2x95Jfkq5F-9" value="&lt;div align=&quot;left&quot;&gt;- Utilisateurs&lt;/div&gt;&lt;div align=&quot;left&quot;&gt;- Roles&lt;/div&gt;&lt;div align=&quot;left&quot;&gt;- Groupes&lt;br&gt;&lt;/div&gt;" style="whiteSpace=wrap;html=1;aspect=fixed;align=left;" vertex="1" parent="WIyWlLk6GJQsqaUBKTNV-1">
          <mxGeometry x="60" y="225" width="100" height="100" as="geometry" />
        </mxCell>
      </root>
    </mxGraphModel>
  </diagram>
</mxfile>
